<?xml version="1.0"?>
<svg version="1.1" xmlns="http://www.w3.org/2000/svg" width="490" height="200" style=""><path fill="#000000" d="M41.95,91.81c14,0,22.05,9.24,22.05,24.85c0,15.75-9.45,26.25-23.45,26.25s-21.7-8.75-21.7-25.2c0-16.1,8.89-25.9,23.1-25.9z M41.6,100.56c-7,0-10.85,4.34-10.85,16.8c0,11.55,3.15,16.8,10.15,16.8s11.2-4.55,11.2-17.15c0-11.55-3.5-16.45-10.5-16.45z M90.2857,134.65l6.3,1.75l0,5.6l-22.47,0l0-5.6l5.6-1.75l0-39.34l-5.6-1.4l0-5.6l16.17-0.56l0,46.9z M102.1514,110.15l0-5.6l18.69-0.35l0,5.95l-3.92,0.7l6.23,19.6l5.95-19.39l-4.06-0.91l0-5.6l18.83-0.35l0,5.95l-4.34,0.91l-10.29,28.7c-3.36,9.24-7.91,19.04-19.04,19.04c-2.38,0-6.79-0.56-6.79-0.56l0.98-7.49l4.55,0c5.6,0,8.19-5.95,9.38-8.68l-12.46-30.8z M216.4971,136.4l0,5.6l-18.97,0l0-5.6l3.71-1.75l0-16.66c0-3.85-1.12-5.74-4.06-5.74c-4.55,0-7.77,3.64-7.77,3.64l0,18.76l3.64,1.75l0,5.6l-17.78,0l0-5.6l3.64-1.75l0-16.66c0-3.85-0.98-5.74-3.99-5.74c-4.55,0-7.84,3.64-7.84,3.64l0,18.76l3.71,1.75l0,5.6l-19.6,0l0-5.6l5.39-1.75l0-22.75l-5.32-1.75l0-5.6l14.63-0.35l0.49,4.97s6.09-5.67,12.25-5.67c4.97,0,8.05,2.31,9.66,6.02c1.19-1.19,6.44-6.02,12.67-6.02c7.35,0,10.78,4.76,10.78,12.6l0,18.55z M224.5128,104.55l14.91-0.35l0.63,3.92s4.76-4.62,10.36-4.62c9.73,0,14.56,7.21,14.56,18.55c0,12.95-6.16,20.65-18.41,20.65c-2.03,0-4.13-0.28-5.95-0.7l0,8.89l6.65,1.61l0,5.6l-22.61,0l0-5.6l5.46-1.61l0-38.99l-5.6-1.75l0-5.6z M240.6128,115.75l0,17.85c1.12,0.49,2.8,1.05,5.46,1.05c6.02,0,8.05-4.2,8.05-11.34c0-7.07-1.89-11.41-7-11.41c-4.55,0-6.51,3.85-6.51,3.85z M273.6885,110.15l0-5.6l16.1-0.35l0,24.15c0,3.85,1.12,5.6,4.27,5.6c4.55,0,7.91-3.78,7.91-3.78l0-18.27l-5.6-1.75l0-5.6l16.1-0.35l0,30.45l5.6,1.4l0,5.46l-14.77,0.49l-0.7-4.9s-5.6,5.6-12.25,5.6c-7,0-11.06-4.69-11.06-12.53l0-18.27z M333.2942,129.75l0.56,4.55s2.45,0.7,5.88,0.7c3.85,0,5.74-1.19,5.74-3.43c0-5.74-18.69-3.64-18.69-16.1c0-8.75,7-11.97,14.42-11.97c6.3,0,13.02,2.1,13.02,2.1l-0.28,10.5l-5.95,0l-1.05-4.2s-2.03-0.7-4.83-0.7c-3.01,0-4.83,1.26-4.83,3.57c0,5.67,18.69,3.22,18.69,15.33c0,8.05-6.51,12.6-16.1,12.6c-6.65,0-12.88-1.54-12.88-1.54l0-11.41l6.3,0z M421.4956,107.7l-1.75-6.02s-3.29-1.12-7.91-1.12c-7.49,0-11.69,5.46-11.69,17.15c0,11.34,4.41,16.24,11.9,16.24c3.64,0,7.7-1.26,7.7-1.26l0-8.82l-5.25-1.61l0-5.74l20.16-0.35l0,6.09l-4.76,1.61l0,14.28s-7.21,4.69-19.04,4.69c-14.21,0-22.4-8.54-22.4-24.78c0-16.45,9.24-26.25,23.59-26.25c8.47,0,16.31,3.29,16.31,3.29l-0.35,12.6l-6.51,0z M468.2913,142l-1.26-4.55s-5.39,5.25-11.34,5.25c-6.79,0-10.92-3.99-10.92-10.99c0-8.26,6.23-11.55,16.87-11.55l4.9,0l0-3.85c0-3.57-1.89-5.11-5.39-5.11c-3.57,0-6.16,1.05-6.16,1.05l-1.05,4.41l-6.3,0l-0.49-10.36s8.47-2.8,15.19-2.8c10.64,0,14.7,3.71,14.7,13.86l0,17.29l5.25,1.26l0,5.6z M466.5413,126.11l-3.99,0c-5.46,0-7.63,1.4-7.63,4.55c0,2.66,1.47,4.2,4.13,4.2c3.71,0,7.49-4.06,7.49-4.06l0-4.69z M516.207,133.04l2.52,5.32c-3.43,2.52-7.35,4.34-11.9,4.34c-8.05,0-10.36-5.6-10.36-13.65l0-16.1l-6.51,0l0-6.79l6.51-0.91l0-9.66l10.5-1.89l0,11.55l9.8,0l0,7.7l-9.8,0l0,15.4c0,4.48,0.77,6.3,3.71,6.3c1.89,0,4.62-1.12,5.53-1.61z M560.9027,125.41l-23.24,0c0.42,5.6,3.64,8.89,8.47,8.89c5.81,0,11.76-3.29,11.76-3.29l3.01,5.81s-7,5.88-15.96,5.88c-12.04,0-18.2-7-18.2-18.9c0-12.25,6.93-20.3,18.69-20.3c10.43,0,15.89,6.44,15.89,16.45c0,2.66-0.42,5.25-0.42,5.46z M537.8027,118.9l12.67,0c0-3.99-1.68-7-5.74-7c-3.92,0-6.37,2.87-6.93,7z"/><path fill="#" d=""/></svg>
