<?xml version="1.0"?>
<svg version="1.1" xmlns="http://www.w3.org/2000/svg" width="490" height="200" style=""><path fill="#000000" d="M38.1,92.98c12,0,18.9,7.92,18.9,21.3c0,13.5-8.1,22.5-20.1,22.5s-18.6-7.5-18.6-21.6c0-13.8,7.62-22.2,19.8-22.2z M37.8,100.48c-6,0-9.3,3.72-9.3,14.4c0,9.9,2.7,14.4,8.7,14.4s9.6-3.9,9.6-14.7c0-9.9-3-14.1-9-14.1z M79.5306,129.7l5.4,1.5l0,4.8l-19.26,0l0-4.8l4.8-1.5l0-33.72l-4.8-1.2l0-4.8l13.86-0.48l0,40.2z M89.7012,108.7l0-4.8l16.02-0.3l0,5.1l-3.36,0.6l5.34,16.8l5.1-16.62l-3.48-0.78l0-4.8l16.14-0.3l0,5.1l-3.72,0.78l-8.82,24.6c-2.88,7.92-6.78,16.32-16.32,16.32c-2.04,0-5.82-0.48-5.82-0.48l0.84-6.42l3.9,0c4.8,0,7.02-5.1,8.04-7.44l-10.68-26.4z M187.7118,131.2l0,4.8l-16.26,0l0-4.8l3.18-1.5l0-14.28c0-3.3-0.96-4.92-3.48-4.92c-3.9,0-6.66,3.12-6.66,3.12l0,16.08l3.12,1.5l0,4.8l-15.24,0l0-4.8l3.12-1.5l0-14.28c0-3.3-0.84-4.92-3.42-4.92c-3.9,0-6.72,3.12-6.72,3.12l0,16.08l3.18,1.5l0,4.8l-16.8,0l0-4.8l4.62-1.5l0-19.5l-4.56-1.5l0-4.8l12.54-0.3l0.42,4.26s5.22-4.86,10.5-4.86c4.26,0,6.9,1.98,8.28,5.16c1.02-1.02,5.52-5.16,10.86-5.16c6.3,0,9.24,4.08,9.24,10.8l0,15.9z M194.5824,103.9l12.78-0.3l0.54,3.36s4.08-3.96,8.88-3.96c8.34,0,12.48,6.18,12.48,15.9c0,11.1-5.28,17.7-15.78,17.7c-1.74,0-3.54-0.24-5.1-0.6l0,7.62l5.7,1.38l0,4.8l-19.38,0l0-4.8l4.68-1.38l0-33.42l-4.8-1.5l0-4.8z M208.3824,113.5l0,15.3c0.96,0.42,2.4,0.9,4.68,0.9c5.16,0,6.9-3.6,6.9-9.72c0-6.06-1.62-9.78-6-9.78c-3.9,0-5.58,3.3-5.58,3.3z M236.733,108.7l0-4.8l13.8-0.3l0,20.7c0,3.3,0.96,4.8,3.66,4.8c3.9,0,6.78-3.24,6.78-3.24l0-15.66l-4.8-1.5l0-4.8l13.8-0.3l0,26.1l4.8,1.2l0,4.68l-12.66,0.42l-0.6-4.2s-4.8,4.8-10.5,4.8c-6,0-9.48-4.02-9.48-10.74l0-15.66z M287.8236,125.5l0.48,3.9s2.1,0.6,5.04,0.6c3.3,0,4.92-1.02,4.92-2.94c0-4.92-16.02-3.12-16.02-13.8c0-7.5,6-10.26,12.36-10.26c5.4,0,11.16,1.8,11.16,1.8l-0.24,9l-5.1,0l-0.9-3.6s-1.74-0.6-4.14-0.6c-2.58,0-4.14,1.08-4.14,3.06c0,4.86,16.02,2.76,16.02,13.14c0,6.9-5.58,10.8-13.8,10.8c-5.7,0-11.04-1.32-11.04-1.32l0-9.78l5.4,0z M363.4248,106.6l-1.5-5.16s-2.82-0.96-6.78-0.96c-6.42,0-10.02,4.68-10.02,14.7c0,9.72,3.78,13.92,10.2,13.92c3.12,0,6.6-1.08,6.6-1.08l0-7.56l-4.5-1.38l0-4.92l17.28-0.3l0,5.22l-4.08,1.38l0,12.24s-6.18,4.02-16.32,4.02c-12.18,0-19.2-7.32-19.2-21.24c0-14.1,7.92-22.5,20.22-22.5c7.26,0,13.98,2.82,13.98,2.82l-0.3,10.8l-5.58,0z M403.5354,136l-1.08-3.9s-4.62,4.5-9.72,4.5c-5.82,0-9.36-3.42-9.36-9.42c0-7.08,5.34-9.9,14.46-9.9l4.2,0l0-3.3c0-3.06-1.62-4.38-4.62-4.38c-3.06,0-5.28,0.9-5.28,0.9l-0.9,3.78l-5.4,0l-0.42-8.88s7.26-2.4,13.02-2.4c9.12,0,12.6,3.18,12.6,11.88l0,14.82l4.5,1.08l0,4.8z M402.0354,122.38l-3.42,0c-4.68,0-6.54,1.2-6.54,3.9c0,2.28,1.26,3.6,3.54,3.6c3.18,0,6.42-3.48,6.42-3.48l0-4.02z M444.606,128.32l2.16,4.56c-2.94,2.16-6.3,3.72-10.2,3.72c-6.9,0-8.88-4.8-8.88-11.7l0-13.8l-5.58,0l0-5.82l5.58-0.78l0-8.28l9-1.62l0,9.9l8.4,0l0,6.6l-8.4,0l0,13.2c0,3.84,0.66,5.4,3.18,5.4c1.62,0,3.96-0.96,4.74-1.38z M482.9166,121.78l-19.92,0c0.36,4.8,3.12,7.62,7.26,7.62c4.98,0,10.08-2.82,10.08-2.82l2.58,4.98s-6,5.04-13.68,5.04c-10.32,0-15.6-6-15.6-16.2c0-10.5,5.94-17.4,16.02-17.4c8.94,0,13.62,5.52,13.62,14.1c0,2.28-0.36,4.5-0.36,4.68z M463.1166,116.2l10.86,0c0-3.42-1.44-6-4.92-6c-3.36,0-5.46,2.46-5.94,6z"/><path fill="#" d=""/></svg>
