<?xml version="1.0" encoding="utf-8"?>
<!-- Generator: Adobe Illustrator 26.0.2, SVG Export Plug-In . SVG Version: 6.00 Build 0)  -->
<svg version="1.1" xmlns="http://www.w3.org/2000/svg" xmlns:xlink="http://www.w3.org/1999/xlink" x="0px" y="0px"
	 viewBox="0 0 132 48" style="enable-background:new 0 0 132 48;" xml:space="preserve">
<style type="text/css">
	.st0{fill-rule:evenodd;clip-rule:evenodd;fill:url(#SVGID_1_);}
	.st1{fill-rule:evenodd;clip-rule:evenodd;fill:#FFFFFF;}
	.st2{display:none;}
	.st3{display:inline;}
	.st4{fill-rule:evenodd;clip-rule:evenodd;fill:#82FF5F;}
	.st5{font-family:'AbrilFatface-Italic';}
	.st6{font-size:21px;}
</style>
<g id="Layer_1">
	<g>
		
			<linearGradient id="SVGID_1_" gradientUnits="userSpaceOnUse" x1="-873.3958" y1="554.2708" x2="-874.3958" y2="553.2708" gradientTransform="matrix(48 0 0 -48 41971 26605)">
			<stop  offset="0" style="stop-color:#0C6A37"/>
			<stop  offset="1" style="stop-color:#046994"/>
		</linearGradient>
		<path class="st0" d="M32.6,0H15.4C6.9,0,0,6.9,0,15.4v17.1C0,41.1,6.9,48,15.4,48h17.1C41.1,48,48,41.1,48,32.6V15.4
			C48,6.9,41.1,0,32.6,0z"/>
		<path class="st1" d="M11.1,21.5c-1.6,1.6-2.2,3.8-1.7,5.9c0.5,2.1,2.2,3.7,4.3,4.3c2.1,0.5,4.4-0.1,5.9-1.7L30,19.6
			c1.5-1.5,3.8-1.5,5.3-0.1c1.4,1.4,1.4,3.8-0.1,5.3l-3.4,3.4L30,26.3L28.7,33l6.8-1.3l-1.9-1.9l3.4-3.4c1.6-1.6,2.2-3.8,1.7-5.9
			c-0.5-2.1-2.2-3.7-4.3-4.3c-2.1-0.5-4.4,0.1-5.9,1.7L18,28.4c-1.5,1.5-3.8,1.5-5.3,0.1c-1.4-1.4-1.4-3.8,0.1-5.3l3.1-3.1l1.9,1.9
			l1.3-6.8l-6.8,1.3l1.9,1.9L11.1,21.5z"/>
		<g class="st2">
			<path class="st3" d="M64.4,23.9l0.4-2h3.7l0.4,2h6.1L69.7,8.5h-5.9l-5.4,15.4L64.4,23.9L64.4,23.9z M67.9,18.1h-2.4l0.8-3.7
				l0.2-0.9l0.2-1.1l0.1,1l0.2,0.9L67.9,18.1L67.9,18.1z M80.8,23.9l-0.1-5.8c0-0.4,0-0.7,0-1c0-0.3-0.1-0.6-0.1-0.9l-0.3-1.5
				l0.4,1.2l1,2.3l3.5,5.7h5.6V8.5h-5.5l0.1,6.1c0,0.5,0,1,0.1,1.5l0.4,2l-0.9-2.5c-0.1-0.3-0.3-0.7-0.5-1l-3.6-6.1h-5.5v15.4
				L80.8,23.9L80.8,23.9z M101.5,23.9v-6.6l5.1-8.8h-6.1L99,11.8l-0.2,0.9l-0.1,0.8l-0.1-0.8L98.5,12l-0.1-0.2l-1.6-3.3h-6l5.1,8.8
				v6.6C96,23.9,101.5,23.9,101.5,23.9z M64.9,42.3c1.9,0,3.4-0.5,4.7-1.6c1.2-1.1,1.8-2.4,1.8-3.9c0-0.4,0-0.8-0.1-1.1
				S71.1,35,71,34.7c-0.3-0.6-0.8-1.1-1.3-1.4c-0.1-0.1-0.3-0.2-0.4-0.2C69.1,33.1,69,33,68.8,33c-0.3-0.1-0.7-0.2-1.2-0.4l-1.2-0.3
				c-0.4-0.1-0.7-0.2-0.9-0.3c-0.2-0.1-0.2-0.2-0.2-0.4c0-0.5,0.4-0.8,1.2-0.8c0.4,0,0.9,0.1,1.5,0.4c0.3,0.1,0.6,0.3,0.9,0.5
				c0.1,0.1,0.4,0.2,0.7,0.4l1.2-3.9c-0.6-0.4-1.1-0.6-1.4-0.7c-0.3-0.1-0.7-0.3-1.2-0.4c-0.9-0.2-1.7-0.3-2.5-0.3
				c-1.8,0-3.2,0.5-4.4,1.5c-1.2,1-1.8,2.3-1.8,3.8c0,1.8,1,3,2.9,3.7l0.8,0.3l1.1,0.2c0.5,0.1,0.9,0.2,1.1,0.3
				c0.2,0.1,0.2,0.3,0.2,0.4c0,0.3-0.1,0.5-0.3,0.6c-0.2,0.1-0.5,0.2-0.8,0.2c-0.6,0-1.3-0.2-2.1-0.6l-0.8-0.5l-0.9-0.7l-1.5,4.4
				c0.8,0.5,1.3,0.8,1.7,1c0.4,0.2,0.9,0.3,1.7,0.5c0.4,0.1,0.8,0.2,1.2,0.2C64.1,42.2,64.5,42.3,64.9,42.3L64.9,42.3z M80.5,41.9
				l1.3-6.3c0.2-0.8,0.3-1.3,0.3-1.4c0.1-0.6,0.1-1.5,0.1-2.6c0,1.3,0.1,2.4,0.2,3.1l0.2,0.9l1.3,6.3H89L93.8,27h-5.3l-1.6,6.5
				l-0.2,0.9c-0.1,0.5-0.1,1.2-0.1,2.1l-0.1-1.7l-0.1-0.8l-0.1-0.5L84.6,27h-4.6l-1.7,6.5c-0.1,0.2-0.1,0.4-0.1,0.6l0,0.7l-0.1,1.7
				l-0.2-1.8l-0.1-0.6l-0.1-0.6L76.2,27h-5.3l4.8,14.9L80.5,41.9L80.5,41.9z M97.4,41.9l0.4-1.9h3.7l0.4,1.9h6L102.5,27h-5.8
				l-5.4,14.9L97.4,41.9L97.4,41.9z M100.8,36.2h-2.3l0.8-3.6l0.2-0.8l0.2-1l0.1,1l0.2,0.9C100,32.7,100.8,36.2,100.8,36.2z
				 M113.7,41.9v-4.3h2.6c1.5,0,2.6-0.5,3.5-1.4c0.9-0.9,1.3-2.2,1.3-3.7c0-1.7-0.5-3-1.5-4c-1-1-2.4-1.5-4.1-1.5h-7.5v14.9
				L113.7,41.9L113.7,41.9z M114.6,33.8h-0.9v-2.6h0.8c0.4,0,0.6,0,0.7,0.1l0.3,0.1c0.3,0.2,0.5,0.5,0.5,1.1
				C116,33.4,115.5,33.8,114.6,33.8z"/>
		</g>
		<circle class="st4" cx="128" cy="39" r="4"/>
	</g>
</g>
<g id="Layer_2">
	<text transform="matrix(1 0 0 1 56.8232 22.4447)"><tspan x="0" y="0" class="st5 st6">No Defi</tspan><tspan x="0" y="18" class="st5 st6">Money</tspan></text>
</g>
</svg>
