<?xml version="1.0"?>
<svg version="1.1" xmlns="http://www.w3.org/2000/svg" width="400" height="200" style="border: dashed 2px #aaa"><path fill="#000000" d="M28.475,95.905c7,0,11.025,4.62,11.025,12.425c0,7.875-4.725,13.125-11.725,13.125s-10.85-4.375-10.85-12.6c0-8.05,4.445-12.95,11.55-12.95z M28.3,100.28c-3.5,0-5.425,2.17-5.425,8.4c0,5.775,1.575,8.4,5.075,8.4s5.6-2.275,5.6-8.575c0-5.775-1.75-8.225-5.25-8.225z M52.64285,117.325l3.15,0.875l0,2.8l-11.235,0l0-2.8l2.8-0.875l0-19.67l-2.8-0.7l0-2.8l8.085-0.28l0,23.45z M58.5757,105.075l0-2.8l9.345-0.175l0,2.975l-1.96,0.35l3.115,9.8l2.975-9.695l-2.03-0.455l0-2.8l9.415-0.175l0,2.975l-2.17,0.455l-5.145,14.35c-1.68,4.62-3.955,9.52-9.52,9.52c-1.19,0-3.395-0.28-3.395-0.28l0.49-3.745l2.275,0c2.8,0,4.095-2.975,4.69-4.34l-6.23-15.4z M115.74855,118.2l0,2.8l-9.485,0l0-2.8l1.855-0.875l0-8.33c0-1.925-0.56-2.87-2.03-2.87c-2.275,0-3.885,1.82-3.885,1.82l0,9.38l1.82,0.875l0,2.8l-8.89,0l0-2.8l1.82-0.875l0-8.33c0-1.925-0.49-2.87-1.995-2.87c-2.275,0-3.92,1.82-3.92,1.82l0,9.38l1.855,0.875l0,2.8l-9.8,0l0-2.8l2.695-0.875l0-11.375l-2.66-0.875l0-2.8l7.315-0.175l0.245,2.485s3.045-2.835,6.125-2.835c2.485,0,4.025,1.155,4.83,3.01c0.595-0.595,3.22-3.01,6.335-3.01c3.675,0,5.39,2.38,5.39,6.3l0,9.275z M119.7564,102.275l7.455-0.175l0.315,1.96s2.38-2.31,5.18-2.31c4.865,0,7.28,3.605,7.28,9.275c0,6.475-3.08,10.325-9.205,10.325c-1.015,0-2.065-0.14-2.975-0.35l0,4.445l3.325,0.805l0,2.8l-11.305,0l0-2.8l2.73-0.805l0-19.495l-2.8-0.875l0-2.8z M127.8064,107.875l0,8.925c0.56,0.245,1.4,0.525,2.73,0.525c3.01,0,4.025-2.1,4.025-5.67c0-3.535-0.945-5.705-3.5-5.705c-2.275,0-3.255,1.925-3.255,1.925z M144.34425,105.075l0-2.8l8.05-0.175l0,12.075c0,1.925,0.56,2.8,2.135,2.8c2.275,0,3.955-1.89,3.955-1.89l0-9.135l-2.8-0.875l0-2.8l8.05-0.175l0,15.225l2.8,0.7l0,2.73l-7.385,0.245l-0.35-2.45s-2.8,2.8-6.125,2.8c-3.5,0-5.53-2.345-5.53-6.265l0-9.135z M174.1471,114.875l0.28,2.275s1.225,0.35,2.94,0.35c1.925,0,2.87-0.595,2.87-1.715c0-2.87-9.345-1.82-9.345-8.05c0-4.375,3.5-5.985,7.21-5.985c3.15,0,6.51,1.05,6.51,1.05l-0.14,5.25l-2.975,0l-0.525-2.1s-1.015-0.35-2.415-0.35c-1.505,0-2.415,0.63-2.415,1.785c0,2.835,9.345,1.61,9.345,7.665c0,4.025-3.255,6.3-8.05,6.3c-3.325,0-6.44-0.77-6.44-0.77l0-5.705l3.15,0z M218.2478,103.85l-0.875-3.01s-1.645-0.56-3.955-0.56c-3.745,0-5.845,2.73-5.845,8.575c0,5.67,2.205,8.12,5.95,8.12c1.82,0,3.85-0.63,3.85-0.63l0-4.41l-2.625-0.805l0-2.87l10.08-0.175l0,3.045l-2.38,0.805l0,7.14s-3.605,2.345-9.52,2.345c-7.105,0-11.2-4.27-11.2-12.39c0-8.225,4.62-13.125,11.795-13.125c4.235,0,8.155,1.645,8.155,1.645l-0.175,6.3l-3.255,0z M241.64565,121l-0.63-2.275s-2.695,2.625-5.67,2.625c-3.395,0-5.46-1.995-5.46-5.495c0-4.13,3.115-5.775,8.435-5.775l2.45,0l0-1.925c0-1.785-0.945-2.555-2.695-2.555c-1.785,0-3.08,0.525-3.08,0.525l-0.525,2.205l-3.15,0l-0.245-5.18s4.235-1.4,7.595-1.4c5.32,0,7.35,1.855,7.35,6.93l0,8.645l2.625,0.63l0,2.8z M240.77065,113.055l-1.995,0c-2.73,0-3.815,0.7-3.815,2.275c0,1.33,0.735,2.1,2.065,2.1c1.855,0,3.745-2.03,3.745-2.03l0-2.345z M265.6035,116.52l1.26,2.66c-1.715,1.26-3.675,2.17-5.95,2.17c-4.025,0-5.18-2.8-5.18-6.825l0-8.05l-3.255,0l0-3.395l3.255-0.455l0-4.83l5.25-0.945l0,5.775l4.9,0l0,3.85l-4.9,0l0,7.7c0,2.24,0.385,3.15,1.855,3.15c0.945,0,2.31-0.56,2.765-0.805z M287.95135,112.705l-11.62,0c0.21,2.8,1.82,4.445,4.235,4.445c2.905,0,5.88-1.645,5.88-1.645l1.505,2.905s-3.5,2.94-7.98,2.94c-6.02,0-9.1-3.5-9.1-9.45c0-6.125,3.465-10.15,9.345-10.15c5.215,0,7.945,3.22,7.945,8.225c0,1.33-0.21,2.625-0.21,2.73z M276.40135,109.45l6.335,0c0-1.995-0.84-3.5-2.87-3.5c-1.96,0-3.185,1.435-3.465,3.5z"/><path fill="#" d=""/></svg>
